<svg xmlns="http://www.w3.org/2000/svg" viewBox="0 0 106 106"><defs><style>.cls-1{fill:#00563b;}.cls-2{fill:none;stroke:#000;stroke-miterlimit:10;stroke-width:0.02px;}.cls-3{fill:#fff;}</style></defs><title>logo 128</title><g id="Layer_2" data-name="Layer 2"><g id="Layer_1-2" data-name="Layer 1"><circle class="cls-1" cx="53" cy="53" r="53"/><path class="cls-2" d="M65.54,44.57h0Z"/><path class="cls-3" d="M50.55,51a14.76,14.76,0,1,0,0,1c0-.17,0-.33,0-.49S50.55,51.19,50.55,51Zm-6.68.64v.16c0,.07,0,.14,0,.21v.13s0,0,0,.08a.28.28,0,0,1,0,.09l0,.26s0,.06,0,.08v.07s0,.06,0,.1l0,.12a.68.68,0,0,1,0,.14l0,.08s0,.06,0,.09,0,0,0,.08a.29.29,0,0,1,0,.09.14.14,0,0,1,0,.07.29.29,0,0,1,0,.09l0,.12,0,.1,0,.07a1.72,1.72,0,0,0-.07.21c0,.07-.05.15-.08.22a.78.78,0,0,0,0,.14l0,.1,0,0a1,1,0,0,0,0,.1,2.4,2.4,0,0,1-.11.23.54.54,0,0,1,0,.11h0l-.05.09a.83.83,0,0,1-.07.13l-.06.11-.06.12h0l-.06.11a.61.61,0,0,1-.07.1,8.08,8.08,0,1,1,0-8.41.36.36,0,0,0,.07.1l.06.12a.41.41,0,0,1,0,.09l.15.27,0,.07.07.15s0,.07.05.1l0,.12a.42.42,0,0,1,0,.1c0,.09.08.18.11.27a.49.49,0,0,0,0,.11l0,.12c0,.06,0,.13.07.2l0,.07,0,.11,0,.11a.3.3,0,0,1,0,.1l0,.06a.3.3,0,0,1,0,.1l0,.1a.11.11,0,0,0,0,0,.36.36,0,0,0,0,.1s0,.09,0,.13a1.85,1.85,0,0,1,0,.23h0v.05s0,.07,0,.11l0,.24a.25.25,0,0,1,0,.08s0,.07,0,.1V51c0,.08,0,.17,0,.26v.46Z"/><path class="cls-3" d="M46.53,13.17a4,4,0,0,1,4,4V52A14.76,14.76,0,0,1,43.2,64.29a.34.34,0,0,1-.51-.3V55.82a.41.41,0,0,1,.05-.18,8,8,0,0,0,1.13-3.85v-.54a8,8,0,0,0-1.13-3.86.34.34,0,0,1-.05-.17V17a3.84,3.84,0,0,1,3.84-3.84Z"/><path class="cls-3" d="M80.38,40.07a8,8,0,0,0-.64-3.14H64.86a14.72,14.72,0,1,0,13.59,8.37A8.06,8.06,0,0,0,80.38,40.07ZM65.14,59.76A8.07,8.07,0,0,1,65,43.62h.1a8.07,8.07,0,0,1,7.25,4.54h0a7.94,7.94,0,0,1,.82,3.54A8.07,8.07,0,0,1,65.14,59.76Z"/><path class="cls-3" d="M85.41,84.13a8.07,8.07,0,0,1-8.07,8.07h-.2c0-.2,0-.4,0-.6a8.08,8.08,0,0,0-7.88-8.07v0H56.88a8.08,8.08,0,0,1,0-16.15h.2c0,.2,0,.4,0,.6A8.07,8.07,0,0,0,64.93,76H77.34v.06A8.07,8.07,0,0,1,85.41,84.13Z"/></g></g></svg>