<svg xmlns="http://www.w3.org/2000/svg" viewBox="0 0 127.89 127.89"><defs><style>.cls-1{fill:#00563b;}.cls-2{fill:none;stroke:#000;stroke-miterlimit:10;stroke-width:0.02px;}.cls-3{fill:#fff;}</style></defs><title>128 X 128_1</title><g id="Layer_2" data-name="Layer 2"><g id="Layer_1-2" data-name="Layer 1"><circle class="cls-1" cx="63.94" cy="63.94" r="63.94"/><path class="cls-2" d="M79.08,53.77h0Z"/><path class="cls-3" d="M61,61.56a17.81,17.81,0,1,0,0,1.18c0-.19,0-.39,0-.59S61,61.76,61,61.56Zm-8.06.78v.19c0,.08,0,.17,0,.25v.07s0,.06,0,.09a.34.34,0,0,1,0,.1.41.41,0,0,1,0,.11l0,.31s0,.07,0,.1,0,0,0,.08,0,.08,0,.12a.77.77,0,0,0,0,.15c0,.05,0,.11,0,.17a.29.29,0,0,1,0,.09.36.36,0,0,1,0,.11s0,.07,0,.1l0,.11s0,.05,0,.08l0,.11a.57.57,0,0,1,0,.14l0,.13,0,.08a1.83,1.83,0,0,1-.08.25c0,.09-.06.18-.1.27l-.06.17,0,.12,0,0a.61.61,0,0,1,0,.12l-.12.28-.06.13v0a.93.93,0,0,0-.05.1l-.09.17-.07.13-.08.14h0l-.07.13-.08.13a9.75,9.75,0,1,1,0-10.15l.07.12.08.14.07.12c.06.1.11.21.17.32l0,.08L52,58l.06.12.06.15.06.12.12.33,0,.12s0,.1.05.15a1.83,1.83,0,0,1,.08.25l0,.08,0,.13a.57.57,0,0,1,0,.14l0,.11s0,0,0,.07l0,.12,0,.12s0,.05,0,.07a.5.5,0,0,1,0,.12.76.76,0,0,1,0,.16,2.56,2.56,0,0,1,0,.27h0s0,0,0,.06,0,.08,0,.12l0,.3a.31.31,0,0,1,0,.1.37.37,0,0,1,0,.11s0,.06,0,.1,0,.2,0,.31v.56Z"/><path class="cls-3" d="M56.14,15.89A4.85,4.85,0,0,1,61,20.74v42a17.81,17.81,0,0,1-8.87,14.82.41.41,0,0,1-.61-.36V67.34a.42.42,0,0,1,.06-.21,9.81,9.81,0,0,0,1.36-4.65v-.65a9.78,9.78,0,0,0-1.36-4.65.42.42,0,0,1-.06-.21V20.52a4.63,4.63,0,0,1,4.63-4.63Z"/><path class="cls-3" d="M97,48.35a9.71,9.71,0,0,0-.76-3.79h-18A17.81,17.81,0,1,0,94.64,54.67,9.71,9.71,0,0,0,97,48.35ZM78.58,72.1a9.74,9.74,0,0,1-.11-19.48h.11a9.74,9.74,0,0,1,8.76,5.47h0a9.73,9.73,0,0,1-8.76,14Z"/><path class="cls-3" d="M103.05,101.5a9.75,9.75,0,0,1-9.75,9.74h-.24q0-.36,0-.72a9.74,9.74,0,0,0-9.5-9.74v-.07h-15a9.74,9.74,0,0,1,0-19.48h.24c0,.24,0,.48,0,.73a9.73,9.73,0,0,0,9.5,9.73h15v.06A9.75,9.75,0,0,1,103.05,101.5Z"/></g></g></svg>