<svg xmlns="http://www.w3.org/2000/svg" viewBox="0 0 256 256"><defs><style>.cls-1{fill:#00563b;}.cls-2{fill:none;stroke:#000;stroke-miterlimit:10;stroke-width:0.04px;}.cls-3{fill:#fff;}</style></defs><title>256 X 256_1</title><g id="Layer_2" data-name="Layer 2"><g id="Layer_1-2" data-name="Layer 1"><circle class="cls-1" cx="128" cy="128" r="128"/><path class="cls-2" d="M158.29,107.65h0Z"/><path class="cls-3" d="M122.08,123.24a35.65,35.65,0,1,0,0,2.36c0-.39,0-.78,0-1.18S122.09,123.63,122.08,123.24ZM106,124.8c0,.07,0,.14,0,.21v.16l0,.5a.53.53,0,0,1,0,.13c0,.07,0,.13,0,.19s0,.14,0,.2,0,.15,0,.22,0,.42-.07.62l0,.21a.77.77,0,0,0,0,.15,2,2,0,0,0,0,.24c0,.1,0,.2,0,.3a3.4,3.4,0,0,0-.07.34c0,.06,0,.13,0,.19a1.74,1.74,0,0,1-.05.22c0,.06,0,.13,0,.19s0,.15,0,.22l-.05.17a1.74,1.74,0,0,1,0,.22c0,.1,0,.19-.08.28l-.07.25-.06.17c0,.17-.1.34-.16.5s-.12.36-.19.54-.08.22-.13.33l-.09.24,0,.09-.1.24-.25.57-.13.25s0,0,0,.05-.06.13-.1.2l-.17.32c0,.09-.09.18-.14.27l-.15.27h0l-.15.27a2.26,2.26,0,0,0-.16.26,19.5,19.5,0,1,1,0-20.32l.15.25.16.28a2.53,2.53,0,0,0,.13.22l.34.66.07.15.18.36a2.72,2.72,0,0,1,.11.25c0,.1.09.2.13.29s.07.17.11.25.17.43.25.65l.09.25c0,.1.07.19.1.29s.11.33.16.5l.06.17.07.25c0,.09,0,.19.08.28l.06.23,0,.14.06.24a2,2,0,0,1,0,.24.79.79,0,0,1,0,.13c0,.09,0,.17,0,.25l.06.31c0,.18.07.37.1.55h0a.5.5,0,0,0,0,.12l0,.25c0,.2,0,.4.07.6s0,.13,0,.2,0,.14,0,.22,0,.13,0,.19,0,.42,0,.63v1.13Z"/><path class="cls-3" d="M112.37,31.81a9.7,9.7,0,0,1,9.71,9.7V125.6a35.61,35.61,0,0,1-17.74,29.65.82.82,0,0,1-1.23-.71V134.81a.82.82,0,0,1,.12-.43,19.41,19.41,0,0,0,2.72-9.31c0-.22,0-.43,0-.65s0-.43,0-.65a19.41,19.41,0,0,0-2.72-9.31.82.82,0,0,1-.12-.43v-73a9.27,9.27,0,0,1,9.26-9.26Z"/><path class="cls-3" d="M194.11,96.78a19.33,19.33,0,0,0-1.53-7.58H156.64a35.61,35.61,0,1,0,32.82,20.23A19.43,19.43,0,0,0,194.11,96.78Zm-36.8,47.55a19.5,19.5,0,0,1-.22-39h.22a19.51,19.51,0,0,1,17.53,11h0a19.51,19.51,0,0,1-17.53,28.05Z"/><path class="cls-3" d="M206.27,203.18a19.5,19.5,0,0,1-19.49,19.5h-.49c0-.48.05-1,.05-1.45a19.5,19.5,0,0,0-19-19.5.62.62,0,0,1,0-.13h-30a19.5,19.5,0,0,1,0-39h.48c0,.48-.05,1-.05,1.45a19.5,19.5,0,0,0,19,19.49h30v.12A19.5,19.5,0,0,1,206.27,203.18Z"/></g></g></svg>